<svg width="505" height="500" viewBox="0 0 505 500" fill="none" xmlns="http://www.w3.org/2000/svg">
<rect x="5" width="500" height="500" rx="150" fill="#181818"/>
<path d="M168.39 194.25C164.39 174.5 148.14 149 106.39 149C73.3896 149 46.1396 173.5 46.1396 203.25C46.1396 229.75 64.1396 247.5 91.1397 253L116.14 258.25C131.39 261.5 139.89 270.75 139.89 282.25C139.89 296 128.89 306.75 107.64 306.75C82.1397 306.75 68.8897 289.75 67.1397 271.25L39.1396 279.25C41.8896 304.75 62.6396 333.75 107.64 333.75C148.14 333.75 170.39 307.5 170.39 280C170.39 255 153.64 235.25 122.39 229L96.8897 223.75C83.1397 220.75 76.1397 212.25 76.1397 201C76.1397 187.5 88.6397 175.5 106.64 175.5C130.39 175.5 139.64 191.75 141.39 202.75L168.39 194.25ZM217.589 255.75C218.589 242.75 229.089 228.75 247.339 228.75C267.339 228.75 276.839 241.5 277.339 255.75H217.589ZM280.589 287.5C276.589 299.5 267.589 308.75 250.089 308.75C232.089 308.75 217.589 295.5 216.839 277H305.839C306.089 276.5 306.589 272.5 306.589 267.75C306.589 229.25 284.589 204.5 247.089 204.5C216.339 204.5 187.839 230 187.839 268.5C187.839 309.75 217.089 333.75 250.089 333.75C279.339 333.75 298.589 316.5 305.089 295.25L280.589 287.5ZM363.302 330V149H334.302V330H363.302ZM454.708 173.75C460.208 173.75 463.458 174.5 465.208 175V150.25C463.208 149.25 457.208 147.75 449.958 147.75C424.958 147.75 407.458 164.25 407.458 191.5V208.25H386.208V233.5H407.458V330H436.708V233.5H464.958V208.25H436.708V192.25C436.708 177.25 446.958 173.75 454.708 173.75Z" fill="white"/>
</svg>
